<?xml version="1.0" encoding="UTF-8" standalone="no"?>
<svg
   xmlns:dc="http://purl.org/dc/elements/1.1/"
   xmlns:cc="http://creativecommons.org/ns#"
   xmlns:rdf="http://www.w3.org/1999/02/22-rdf-syntax-ns#"
   xmlns:svg="http://www.w3.org/2000/svg"
   xmlns="http://www.w3.org/2000/svg"
   version="1.1"
   id="svg2"
   viewBox="0 0 744.09448819 1052.3622047"
   height="297mm"
   width="210mm">
  <defs
     id="defs4" />
  <metadata
     id="metadata7">
    <rdf:RDF>
      <cc:Work
         rdf:about="">
        <dc:format>image/svg+xml</dc:format>
        <dc:type
           rdf:resource="http://purl.org/dc/dcmitype/StillImage" />
        <dc:title></dc:title>
      </cc:Work>
    </rdf:RDF>
  </metadata>
  <g
     id="layer1">
    <path
       d="m 429.73482,158.0199 106.18625,0 0,41.25 -106.18625,0 0,-41.25 z"
       style="fill:none;stroke:#000000;stroke-width:0.625;stroke-linecap:butt;stroke-linejoin:miter;stroke-miterlimit:10;stroke-dasharray:none;stroke-opacity:1"
       id="path3402" />
    <path
       d="m 543.42107,158.0199 159.6875,0 0,41.25 -159.6875,0 0,-41.25 z"
       style="fill:none;stroke:#000000;stroke-width:0.625;stroke-linecap:butt;stroke-linejoin:miter;stroke-miterlimit:10;stroke-dasharray:none;stroke-opacity:1"
       id="path3404" />
    <path
       d="m 232.93232,244.2699 119.8775,0 0,30 -119.8775,0 0,-30 z"
       style="fill:none;stroke:#000000;stroke-width:0.625;stroke-linecap:butt;stroke-linejoin:miter;stroke-miterlimit:10;stroke-dasharray:none;stroke-opacity:1"
       id="path3406" />
    <path
       d="m 232.93232,281.7699 119.8775,0 0,30 -119.8775,0 0,-30 z"
       style="fill:none;stroke:#000000;stroke-width:0.625;stroke-linecap:butt;stroke-linejoin:miter;stroke-miterlimit:10;stroke-dasharray:none;stroke-opacity:1"
       id="path3408" />
    <path
       d="m 232.93232,319.2699 119.8775,0 0,30 -119.8775,0 0,-30 z"
       style="fill:none;stroke:#000000;stroke-width:0.625;stroke-linecap:butt;stroke-linejoin:miter;stroke-miterlimit:10;stroke-dasharray:none;stroke-opacity:1"
       id="path3410" />
    <path
       d="m 583.23607,319.2699 119.8725,0 0,30 -119.8725,0 0,-30 z"
       style="fill:none;stroke:#000000;stroke-width:0.625;stroke-linecap:butt;stroke-linejoin:miter;stroke-miterlimit:10;stroke-dasharray:none;stroke-opacity:1"
       id="path3412" />
    <path
       d="m 232.93232,356.7699 119.8775,0 0,37.5 -119.8775,0 0,-37.5 z"
       style="fill:none;stroke:#000000;stroke-width:2.5;stroke-linecap:butt;stroke-linejoin:miter;stroke-miterlimit:10;stroke-dasharray:none;stroke-opacity:1"
       id="path3414" />
    <path
       d="m 232.93232,439.2699 119.8775,0 0,30 -119.8775,0 0,-30 z"
       style="fill:none;stroke:#000000;stroke-width:0.625;stroke-linecap:butt;stroke-linejoin:miter;stroke-miterlimit:10;stroke-dasharray:none;stroke-opacity:1"
       id="path3416" />
    <path
       d="m 583.23607,439.2699 119.8725,0 0,30 -119.8725,0 0,-30 z"
       style="fill:none;stroke:#000000;stroke-width:0.625;stroke-linecap:butt;stroke-linejoin:miter;stroke-miterlimit:10;stroke-dasharray:none;stroke-opacity:1"
       id="path3418" />
    <path
       d="m 232.93232,476.7699 119.8775,0 0,30 -119.8775,0 0,-30 z"
       style="fill:none;stroke:#000000;stroke-width:0.625;stroke-linecap:butt;stroke-linejoin:miter;stroke-miterlimit:10;stroke-dasharray:none;stroke-opacity:1"
       id="path3420" />
    <path
       d="m 583.23607,476.7699 119.8725,0 0,30 -119.8725,0 0,-30 z"
       style="fill:none;stroke:#000000;stroke-width:0.625;stroke-linecap:butt;stroke-linejoin:miter;stroke-miterlimit:10;stroke-dasharray:none;stroke-opacity:1"
       id="path3422" />
    <path
       d="m 232.93232,514.2699 119.8775,0 0,30 -119.8775,0 0,-30 z"
       style="fill:none;stroke:#000000;stroke-width:0.625;stroke-linecap:butt;stroke-linejoin:miter;stroke-miterlimit:10;stroke-dasharray:none;stroke-opacity:1"
       id="path3424" />
    <path
       d="m 583.23607,514.2699 119.8725,0 0,30 -119.8725,0 0,-30 z"
       style="fill:none;stroke:#000000;stroke-width:0.625;stroke-linecap:butt;stroke-linejoin:miter;stroke-miterlimit:10;stroke-dasharray:none;stroke-opacity:1"
       id="path3426" />
    <path
       d="m 232.93232,551.7699 119.8775,0 0,30 -119.8775,0 0,-30 z"
       style="fill:none;stroke:#000000;stroke-width:0.625;stroke-linecap:butt;stroke-linejoin:miter;stroke-miterlimit:10;stroke-dasharray:none;stroke-opacity:1"
       id="path3428" />
    <path
       d="m 583.23607,551.7699 119.8725,0 0,30 -119.8725,0 0,-30 z"
       style="fill:none;stroke:#000000;stroke-width:0.625;stroke-linecap:butt;stroke-linejoin:miter;stroke-miterlimit:10;stroke-dasharray:none;stroke-opacity:1"
       id="path3430" />
    <path
       d="m 232.93232,589.2699 119.8775,0 0,30 -119.8775,0 0,-30 z"
       style="fill:none;stroke:#000000;stroke-width:0.625;stroke-linecap:butt;stroke-linejoin:miter;stroke-miterlimit:10;stroke-dasharray:none;stroke-opacity:1"
       id="path3432" />
    <path
       d="m 583.23607,589.2699 119.8725,0 0,30 -119.8725,0 0,-30 z"
       style="fill:none;stroke:#000000;stroke-width:0.625;stroke-linecap:butt;stroke-linejoin:miter;stroke-miterlimit:10;stroke-dasharray:none;stroke-opacity:1"
       id="path3434" />
    <path
       d="m 232.93232,626.7699 119.8775,0 0,30 -119.8775,0 0,-30 z"
       style="fill:none;stroke:#000000;stroke-width:0.625;stroke-linecap:butt;stroke-linejoin:miter;stroke-miterlimit:10;stroke-dasharray:none;stroke-opacity:1"
       id="path3436" />
    <path
       d="m 583.23607,626.7699 119.8725,0 0,30 -119.8725,0 0,-30 z"
       style="fill:none;stroke:#000000;stroke-width:0.625;stroke-linecap:butt;stroke-linejoin:miter;stroke-miterlimit:10;stroke-dasharray:none;stroke-opacity:1"
       id="path3438" />
    <path
       d="m 232.93232,701.7699 119.8775,0 0,30 -119.8775,0 0,-30 z"
       style="fill:none;stroke:#000000;stroke-width:0.625;stroke-linecap:butt;stroke-linejoin:miter;stroke-miterlimit:10;stroke-dasharray:none;stroke-opacity:1"
       id="path3440" />
    <path
       d="m 583.23607,701.7699 119.8725,0 0,30 -119.8725,0 0,-30 z"
       style="fill:none;stroke:#000000;stroke-width:0.625;stroke-linecap:butt;stroke-linejoin:miter;stroke-miterlimit:10;stroke-dasharray:none;stroke-opacity:1"
       id="path3442" />
    <path
       d="m 232.93232,739.2699 119.8775,0 0,30 -119.8775,0 0,-30 z"
       style="fill:none;stroke:#000000;stroke-width:0.625;stroke-linecap:butt;stroke-linejoin:miter;stroke-miterlimit:10;stroke-dasharray:none;stroke-opacity:1"
       id="path3444" />
    <path
       d="m 583.23607,739.2699 119.8725,0 0,30 -119.8725,0 0,-30 z"
       style="fill:none;stroke:#000000;stroke-width:2.5;stroke-linecap:butt;stroke-linejoin:miter;stroke-miterlimit:10;stroke-dasharray:none;stroke-opacity:1"
       id="path3446" />
    <path
       d="m 232.93232,776.7699 119.8775,0 0,30 -119.8775,0 0,-30 z"
       style="fill:none;stroke:#000000;stroke-width:0.625;stroke-linecap:butt;stroke-linejoin:miter;stroke-miterlimit:10;stroke-dasharray:none;stroke-opacity:1"
       id="path3448" />
    <path
       d="m 583.23607,776.7699 119.8725,0 0,30 -119.8725,0 0,-30 z"
       style="fill:none;stroke:#000000;stroke-width:0.625;stroke-linecap:butt;stroke-linejoin:miter;stroke-miterlimit:10;stroke-dasharray:none;stroke-opacity:1"
       id="path3450" />
    <path
       d="m 232.93232,814.2699 119.8775,0 0,30 -119.8775,0 0,-30 z"
       style="fill:none;stroke:#000000;stroke-width:0.625;stroke-linecap:butt;stroke-linejoin:miter;stroke-miterlimit:10;stroke-dasharray:none;stroke-opacity:1"
       id="path3452" />
    <path
       d="m 583.23607,814.2699 119.8725,0 0,30 -119.8725,0 0,-30 z"
       style="fill:none;stroke:#000000;stroke-width:0.625;stroke-linecap:butt;stroke-linejoin:miter;stroke-miterlimit:10;stroke-dasharray:none;stroke-opacity:1"
       id="path3454" />
    <path
       d="m 232.93232,851.7699 119.8775,0 0,30 -119.8775,0 0,-30 z"
       style="fill:none;stroke:#000000;stroke-width:0.625;stroke-linecap:butt;stroke-linejoin:miter;stroke-miterlimit:10;stroke-dasharray:none;stroke-opacity:1"
       id="path3456" />
    <path
       d="m 583.23607,851.7699 119.8725,0 0,30 -119.8725,0 0,-30 z"
       style="fill:none;stroke:#000000;stroke-width:0.625;stroke-linecap:butt;stroke-linejoin:miter;stroke-miterlimit:10;stroke-dasharray:none;stroke-opacity:1"
       id="path3458" />
    <path
       d="m 232.93232,889.2699 119.8775,0 0,30 -119.8775,0 0,-30 z"
       style="fill:none;stroke:#000000;stroke-width:0.625;stroke-linecap:butt;stroke-linejoin:miter;stroke-miterlimit:10;stroke-dasharray:none;stroke-opacity:1"
       id="path3460" />
    <path
       d="m 583.23607,889.2699 119.8725,0 0,30 -119.8725,0 0,-30 z"
       style="fill:none;stroke:#000000;stroke-width:2.5;stroke-linecap:butt;stroke-linejoin:miter;stroke-miterlimit:10;stroke-dasharray:none;stroke-opacity:1"
       id="path3462" />
    <path
       d="m 583.23607,926.7699 119.8725,0 0,30 -119.8725,0 0,-30 z"
       style="fill:none;stroke:#000000;stroke-width:2.5;stroke-linecap:butt;stroke-linejoin:miter;stroke-miterlimit:10;stroke-dasharray:none;stroke-opacity:1"
       id="path3464" />
    <text
       y="95.0224"
       x="38.108566"
       style="font-variant:normal;font-weight:bold;font-size:15px;font-family:TeXGyreHeros;-inkscape-font-specification:TeXGyreHeros-Bold;writing-mode:lr-tb;fill:#000000;fill-opacity:1;fill-rule:nonzero;stroke:none"
       id="text3466">
      <tspan
         x="38.108566 48.938568 54.773567 63.938568 72.278564 77.273567 85.613571 94.778564 98.94857 107.28857 115.62856 121.46356 130.62857 138.96857 147.30856 151.47856 159.81856 165.65356 173.99356 178.98857 183.15857 192.32356"
         y="95.0224"
         id="tspan3468">Arbetsgivardeklaration</tspan>
    </text>
    <text
       y="116.7724"
       x="38.108566"
       style="font-variant:normal;font-weight:normal;font-size:12.5px;font-family:TeXGyreHeros;-inkscape-font-specification:TeXGyreHeros-Regular;writing-mode:lr-tb;fill:#000000;fill-opacity:1;fill-rule:nonzero;stroke:none"
       id="text3470">
      <tspan
         x="38.108566 47.133568 50.608566 57.558567 64.508568 67.983566 74.933563 77.708565 84.658569 87.433563 94.383568 101.33357 107.58357 114.53357 121.48357 125.64606 128.42107 135.37106 142.32108"
         y="116.7724"
         id="tspan3472">Utbetalningsperiod:</tspan>
      <tspan
         x="38.108566 45.746067 52.696068 56.858566 63.808567 67.283569 74.233566 81.183563 671.42108 679.75861 682.53357 689.48352 696.43353 699.90857"
         y="135.5224"
         id="tspan3474">Företag:Sida 1</tspan>
    </text>
    <text
       y="176.7724"
       x="433.48358"
       style="font-variant:normal;font-weight:normal;font-size:10px;font-family:TeXGyreHeros;-inkscape-font-specification:TeXGyreHeros-Regular;writing-mode:lr-tb;fill:#000000;fill-opacity:1;fill-rule:nonzero;stroke:none"
       id="text3476">
      <tspan
         x="433.48358 439.04358 444.60358 447.38358 454.60358 460.16357 465.16357 467.38358 472.94357 476.27356 481.83356 484.61356 486.83356 492.39355 497.95358 502.95358 508.51358 514.07355 547.17358 552.73358 558.29358 561.07355 567.74359 573.30359 576.63354 581.63354 587.19354 592.75354 596.08356 598.86359 606.64355 609.97357 615.53357 621.09357 626.65356 628.87354 633.87354 639.43353 642.21356 644.43353 649.99353 655.55359 660.55359 666.11359 671.67358 680.0036 688.33356 693.89355"
         y="176.7724"
         id="tspan3478">01 Deklarationsdag02 Person-/Organisationsnummer</tspan>
    </text>
    <text
       y="226.7724"
       x="46.858566"
       style="font-variant:normal;font-weight:bold;font-size:10px;font-family:TeXGyreHeros;-inkscape-font-specification:TeXGyreHeros-Bold;writing-mode:lr-tb;fill:#000000;fill-opacity:1;fill-rule:nonzero;stroke:none"
       id="text3480">
      <tspan
         x="46.858566 54.078568 57.968567 64.078568 67.408569 70.738564 76.848564 79.628563 85.738564 91.848564 94.628563 97.408562 100.73856 106.84856 110.73856 119.62856 125.18857 131.29857 136.85857 140.74857 143.52856 149.63857 155.19856 161.30856 164.08856 169.64857 175.20857 181.31857 185.20857 190.76857 196.87857 199.65857 202.98857 209.09857 212.98857 215.76857 221.87857 225.20856 231.31856 234.09857 237.42856 240.75856 246.31856 250.20856 252.98857 255.76857 258.54858 264.10858 267.99857 274.10858 279.66858 282.99857 288.55856"
         y="226.7724"
         id="tspan3482">Bruttolön, förmåner och avdrag för utgifter i arbetet</tspan>
    </text>
    <text
       y="260.5224"
       x="46.858566"
       style="font-variant:normal;font-weight:normal;font-size:7.5px;font-family:TeXGyreHeros;-inkscape-font-specification:TeXGyreHeros-Regular;writing-mode:lr-tb;fill:#000000;fill-opacity:1;fill-rule:nonzero;stroke:none"
       id="text3484">
      <tspan
         x="46.858566 51.861069 55.611069 59.781067 61.446068 63.531067 65.616066 69.366066 73.536064 75.201065 76.866066 80.616066 82.701065 84.366066 88.536064 90.621063 94.791069 97.288567 101.45856 103.54356 105.62856 109.79857 111.46356 115.63357 119.80357 121.88857 126.05857 128.14357 132.31357 138.56107 140.64607 142.73106 146.90106 149.39856 155.64607 159.81607 163.98607 168.15607"
         y="260.5224"
         id="tspan3486">Avgiftspliktig bruttolön utom förmåner</tspan>
    </text>
    <text
       y="264.2724"
       x="207.69608"
       style="font-variant:normal;font-weight:bold;font-size:10px;font-family:TeXGyreHeros;-inkscape-font-specification:TeXGyreHeros-Bold;writing-mode:lr-tb;fill:#000000;fill-opacity:1;fill-rule:nonzero;stroke:none"
       id="text3488">
      <tspan
         x="207.69608 213.25607"
         y="264.2724"
         id="tspan3490">50</tspan>
    </text>
    <text
       y="301.7724"
       x="46.858566"
       style="font-variant:normal;font-weight:normal;font-size:10px;font-family:TeXGyreHeros;-inkscape-font-specification:TeXGyreHeros-Regular;writing-mode:lr-tb;fill:#000000;fill-opacity:1;fill-rule:nonzero;stroke:none"
       id="text3492">
      <tspan
         x="46.858566 53.528568 58.528568 64.08857 66.308571 69.08857 71.868568 76.868568 82.428566 84.648567 86.868568 91.868568 94.648567 96.868568 102.42857 107.98856 110.76856 113.54857 119.10857 122.43857 130.76857 136.32857 141.88857 147.44856"
         y="301.7724"
         id="tspan3494">Avgiftspliktiga förmåner</tspan>
    </text>
    <text
       y="301.7724"
       x="207.69856"
       style="font-variant:normal;font-weight:bold;font-size:10px;font-family:TeXGyreHeros;-inkscape-font-specification:TeXGyreHeros-Bold;writing-mode:lr-tb;fill:#000000;fill-opacity:1;fill-rule:nonzero;stroke:none"
       id="text3496">
      <tspan
         x="207.69856 213.25858 397.15857 404.37857 410.48856 416.59857 422.70856 425.48856 428.81857 432.14856 434.92856 438.25858 441.03857 443.81857 446.59857 449.37857 455.48856 461.59857 465.48856 471.04855 476.60858 482.16858 486.05856 488.83856 494.94858 501.05856 506.61856 512.17859 517.73859 523.29858 528.85858 534.41858"
         y="301.7724"
         id="tspan3498">51Uppgift till Försäkringskassan</tspan>
    </text>
    <text
       y="339.2724"
       x="46.858566"
       style="font-variant:normal;font-weight:normal;font-size:10px;font-family:TeXGyreHeros;-inkscape-font-specification:TeXGyreHeros-Regular;writing-mode:lr-tb;fill:#000000;fill-opacity:1;fill-rule:nonzero;stroke:none"
       id="text3500">
      <tspan
         x="46.858566 53.528568 59.088566 64.08857 66.868568 72.428566 77.988564 83.548569 88.548569 94.108566 99.108566 104.66857 107.99857 113.55857"
         y="339.2724"
         id="tspan3502">Kostnadsavdrag</tspan>
    </text>
    <text
       y="339.2724"
       x="207.69856"
       style="font-variant:normal;font-weight:bold;font-size:10px;font-family:TeXGyreHeros;-inkscape-font-specification:TeXGyreHeros-Bold;writing-mode:lr-tb;fill:#000000;fill-opacity:1;fill-rule:nonzero;stroke:none"
       id="text3504">
      <tspan
         x="207.69856 213.25858"
         y="339.2724"
         id="tspan3506">52</tspan>
    </text>
    <text
       y="339.2724"
       x="397.15857"
       style="font-variant:normal;font-weight:normal;font-size:10px;font-family:TeXGyreHeros;-inkscape-font-specification:TeXGyreHeros-Regular;writing-mode:lr-tb;fill:#000000;fill-opacity:1;fill-rule:nonzero;stroke:none"
       id="text3508">
      <tspan
         x="397.15857 403.26859 408.82858 411.60858 417.16858 419.38858 422.16858 427.16858 429.38858 434.94858 439.94858 442.16858 447.72858 453.28857 458.84857 463.84857 469.40857 474.40857 477.18857 482.74857 488.30856"
         y="339.2724"
         id="tspan3510">Total sjuklönekostnad</tspan>
    </text>
    <text
       y="339.2724"
       x="557.9986"
       style="font-variant:normal;font-weight:bold;font-size:10px;font-family:TeXGyreHeros;-inkscape-font-specification:TeXGyreHeros-Bold;writing-mode:lr-tb;fill:#000000;fill-opacity:1;fill-rule:nonzero;stroke:none"
       id="text3512">
      <tspan
         x="557.9986 563.55859"
         y="339.2724"
         id="tspan3514">99</tspan>
    </text>
    <text
       y="373.0224"
       x="46.858566"
       style="font-variant:normal;font-weight:bold;font-size:7.5px;font-family:TeXGyreHeros;-inkscape-font-specification:TeXGyreHeros-Bold;writing-mode:lr-tb;fill:#000000;fill-opacity:1;fill-rule:nonzero;stroke:none"
       id="text3516">
      <tspan
         x="46.858566 51.861069 56.031067 62.698566 69.366066 73.536064 78.118568 80.203568 84.373566 88.95607 91.453568 93.538567 98.121063 102.70357 107.28606 111.45607 114.37357 116.45856 120.62856 125.21107 127.29607 129.79356 134.37607"
         y="373.0224"
         id="tspan3518">Sammanlagt underlag för</tspan>
      <tspan
         x="46.858566 51.028568 53.946068 58.528568 62.698566 65.196068 69.366066 73.94857 76.033569 80.203568 84.373566 87.291069 91.461067 95.631065 100.21356 102.29857 104.79607 107.29356 111.46356"
         y="384.2724"
         id="tspan3520">arbetsgivaravgifter</tspan>
    </text>
    <text
       y="376.7724"
       x="207.69608"
       style="font-variant:normal;font-weight:bold;font-size:10px;font-family:TeXGyreHeros;-inkscape-font-specification:TeXGyreHeros-Bold;writing-mode:lr-tb;fill:#000000;fill-opacity:1;fill-rule:nonzero;stroke:none"
       id="text3522">
      <tspan
         x="207.69608 213.25607"
         y="376.7724"
         id="tspan3524">53</tspan>
      <tspan
         x="46.858574 54.078575 60.188576 66.298576 71.858574 75.748573 78.528572 84.08857 90.19857 92.978569 96.308571 102.41857 106.30857 109.08857 114.64857 118.53857 124.64857 130.20857 133.53857 139.09857 145.20857 147.98857 153.54857 159.10857 162.99857 168.55856 174.11858 180.22856 183.00858 186.33856 189.66856 195.22858"
         y="421.7724"
         id="tspan3526">Underlag för arbetsgivaravgifter</tspan>
    </text>
    <text
       y="459.2724"
       x="46.858566"
       style="font-variant:normal;font-weight:normal;font-size:10px;font-family:TeXGyreHeros;-inkscape-font-specification:TeXGyreHeros-Regular;writing-mode:lr-tb;fill:#000000;fill-opacity:1;fill-rule:nonzero;stroke:none"
       id="text3528">
      <tspan
         x="46.858566 52.968567 58.528568 60.748569 62.968567 65.748566 71.308563 74.638565 80.19857 85.758568 88.538567 93.538567 99.098564 101.31857 106.31857 111.87856 115.20856 120.76856 125.76856 131.32857 133.54857 136.32857"
         y="459.2724"
         id="tspan3530">Full arbetsgivaravgift</tspan>
    </text>
    <text
       y="459.2724"
       x="207.69856"
       style="font-variant:normal;font-weight:bold;font-size:10px;font-family:TeXGyreHeros;-inkscape-font-specification:TeXGyreHeros-Bold;writing-mode:lr-tb;fill:#000000;fill-opacity:1;fill-rule:nonzero;stroke:none"
       id="text3532">
      <tspan
         x="207.69856 213.25858 365.30856"
         y="459.2724"
         id="tspan3534">55*</tspan>
    </text>
    <text
       y="459.2724"
       x="397.15857"
       style="font-variant:normal;font-weight:normal;font-size:10px;font-family:TeXGyreHeros;-inkscape-font-specification:TeXGyreHeros-Regular;writing-mode:lr-tb;fill:#000000;fill-opacity:1;fill-rule:nonzero;stroke:none"
       id="text3536">
      <tspan
         x="397.15857 402.71857 408.27856 411.05856 416.61856 422.17856 424.95856"
         y="459.2724"
         id="tspan3538">31,42 %</tspan>
    </text>
    <text
       y="459.2724"
       x="557.99609"
       style="font-variant:normal;font-weight:bold;font-size:10px;font-family:TeXGyreHeros;-inkscape-font-specification:TeXGyreHeros-Bold;writing-mode:lr-tb;fill:#000000;fill-opacity:1;fill-rule:nonzero;stroke:none"
       id="text3540">
      <tspan
         x="557.99609 563.55609"
         y="459.2724"
         id="tspan3542">56</tspan>
    </text>
    <text
       y="496.7724"
       x="46.858566"
       style="font-variant:normal;font-weight:normal;font-size:10px;font-family:TeXGyreHeros;-inkscape-font-specification:TeXGyreHeros-Regular;writing-mode:lr-tb;fill:#000000;fill-opacity:1;fill-rule:nonzero;stroke:none"
       id="text3544">
      <tspan
         x="46.858566 54.078568 59.638569 65.19857 70.758568 76.318565 84.648567 89.648567 95.208565 98.538567 104.09856 109.65857 112.43857 117.43857 122.99857 125.21857 130.21857 135.77856 139.10857 144.66856 149.66856 155.22856 157.44856 160.22856"
         y="496.7724"
         id="tspan3546">Ungdomsarbetsgivaravgift</tspan>
    </text>
    <text
       y="496.7724"
       x="207.70857"
       style="font-variant:normal;font-weight:bold;font-size:10px;font-family:TeXGyreHeros;-inkscape-font-specification:TeXGyreHeros-Bold;writing-mode:lr-tb;fill:#000000;fill-opacity:1;fill-rule:nonzero;stroke:none"
       id="text3548">
      <tspan
         x="207.70857 213.26857 365.30856"
         y="496.7724"
         id="tspan3550">57*</tspan>
    </text>
    <text
       y="496.7724"
       x="397.15857"
       style="font-variant:normal;font-weight:normal;font-size:10px;font-family:TeXGyreHeros;-inkscape-font-specification:TeXGyreHeros-Regular;writing-mode:lr-tb;fill:#000000;fill-opacity:1;fill-rule:nonzero;stroke:none"
       id="text3552">
      <tspan
         x="397.15857 402.71857 408.27856 411.05856 416.61856 422.17856 424.95856"
         y="496.7724"
         id="tspan3554">25,46 %</tspan>
    </text>
    <text
       y="496.7724"
       x="557.99609"
       style="font-variant:normal;font-weight:bold;font-size:10px;font-family:TeXGyreHeros;-inkscape-font-specification:TeXGyreHeros-Bold;writing-mode:lr-tb;fill:#000000;fill-opacity:1;fill-rule:nonzero;stroke:none"
       id="text3556">
      <tspan
         x="557.99609 563.55609"
         y="496.7724"
         id="tspan3558">58</tspan>
    </text>
    <text
       y="534.2724"
       x="46.858566"
       style="font-variant:normal;font-weight:normal;font-size:10px;font-family:TeXGyreHeros;-inkscape-font-specification:TeXGyreHeros-Regular;writing-mode:lr-tb;fill:#000000;fill-opacity:1;fill-rule:nonzero;stroke:none"
       id="text3560">
      <tspan
         x="46.858566 53.528568 55.748566 61.308567 66.868568 70.19857 75.19857 80.758568 86.318565 91.878563 96.878563 99.098564 104.65857 110.21857 115.21857 120.77857 125.77857 131.33856 133.55856 136.33856"
         y="534.2724"
         id="tspan3562">Ålderspensionsavgift</tspan>
    </text>
    <text
       y="534.2724"
       x="207.69856"
       style="font-variant:normal;font-weight:bold;font-size:10px;font-family:TeXGyreHeros;-inkscape-font-specification:TeXGyreHeros-Bold;writing-mode:lr-tb;fill:#000000;fill-opacity:1;fill-rule:nonzero;stroke:none"
       id="text3564">
      <tspan
         x="207.69856 213.25858 365.30856"
         y="534.2724"
         id="tspan3566">59*</tspan>
    </text>
    <text
       y="534.2724"
       x="397.15857"
       style="font-variant:normal;font-weight:normal;font-size:10px;font-family:TeXGyreHeros;-inkscape-font-specification:TeXGyreHeros-Regular;writing-mode:lr-tb;fill:#000000;fill-opacity:1;fill-rule:nonzero;stroke:none"
       id="text3568">
      <tspan
         x="397.15857 402.71857 408.27856 411.05856 416.61856 422.17856 424.95856"
         y="534.2724"
         id="tspan3570">16,36 %</tspan>
    </text>
    <text
       y="534.2724"
       x="557.99609"
       style="font-variant:normal;font-weight:bold;font-size:10px;font-family:TeXGyreHeros;-inkscape-font-specification:TeXGyreHeros-Bold;writing-mode:lr-tb;fill:#000000;fill-opacity:1;fill-rule:nonzero;stroke:none"
       id="text3572">
      <tspan
         x="557.99609 563.55609"
         y="534.2724"
         id="tspan3574">60</tspan>
    </text>
    <text
       y="571.7724"
       x="46.858566"
       style="font-variant:normal;font-weight:normal;font-size:10px;font-family:TeXGyreHeros;-inkscape-font-specification:TeXGyreHeros-Regular;writing-mode:lr-tb;fill:#000000;fill-opacity:1;fill-rule:nonzero;stroke:none"
       id="text3576">
      <tspan
         x="46.858566 53.528568 59.088566 62.418568 67.418564 72.418564 74.638565 76.858566 82.418564 85.19857 87.418571 92.978569 98.538567 104.09856 109.09856 114.09856 119.65857 122.43857"
         y="571.7724"
         id="tspan3578">Särskild löneskatt</tspan>
    </text>
    <text
       y="571.7724"
       x="207.69856"
       style="font-variant:normal;font-weight:bold;font-size:10px;font-family:TeXGyreHeros;-inkscape-font-specification:TeXGyreHeros-Bold;writing-mode:lr-tb;fill:#000000;fill-opacity:1;fill-rule:nonzero;stroke:none"
       id="text3580">
      <tspan
         x="207.69856 213.25858 365.30856"
         y="571.7724"
         id="tspan3582">61*</tspan>
    </text>
    <text
       y="571.7724"
       x="397.15857"
       style="font-variant:normal;font-weight:normal;font-size:10px;font-family:TeXGyreHeros;-inkscape-font-specification:TeXGyreHeros-Regular;writing-mode:lr-tb;fill:#000000;fill-opacity:1;fill-rule:nonzero;stroke:none"
       id="text3584">
      <tspan
         x="397.15857 402.71857 405.49857 411.05856 416.61856 419.39856"
         y="571.7724"
         id="tspan3586">6,15 %</tspan>
    </text>
    <text
       y="571.7724"
       x="557.99609"
       style="font-variant:normal;font-weight:bold;font-size:10px;font-family:TeXGyreHeros;-inkscape-font-specification:TeXGyreHeros-Bold;writing-mode:lr-tb;fill:#000000;fill-opacity:1;fill-rule:nonzero;stroke:none"
       id="text3588">
      <tspan
         x="557.99609 563.55609"
         y="571.7724"
         id="tspan3590">62</tspan>
    </text>
    <text
       y="605.5224"
       x="46.858566"
       style="font-variant:normal;font-weight:normal;font-size:7.5px;font-family:TeXGyreHeros;-inkscape-font-specification:TeXGyreHeros-Regular;writing-mode:lr-tb;fill:#000000;fill-opacity:1;fill-rule:nonzero;stroke:none"
       id="text3592">
      <tspan
         x="46.858566 51.441067 55.611069 58.108566 62.278568 64.363564 68.533569 72.703568 74.788567 78.958565 81.043564 85.21357 89.383568 91.468567 93.553566 97.723572 101.47357 103.55857 105.64357 109.81357 112.31107 113.97607 116.06107 118.14606 121.89606 123.98107 128.15106 129.81607 131.48106 135.65106 137.73607 139.40106 141.48607 146.48857 150.23857 154.40857 156.90607 158.57108 162.74107"
         y="605.5224"
         id="tspan3594">Företag utan fast driftställe i Sverige</tspan>
    </text>
    <text
       y="609.2724"
       x="207.69608"
       style="font-variant:normal;font-weight:bold;font-size:10px;font-family:TeXGyreHeros;-inkscape-font-specification:TeXGyreHeros-Bold;writing-mode:lr-tb;fill:#000000;fill-opacity:1;fill-rule:nonzero;stroke:none"
       id="text3596">
      <tspan
         x="207.69608 213.25607 365.30856 557.99603 563.55603"
         y="609.2724"
         id="tspan3598">65*66</tspan>
    </text>
    <text
       y="646.7724"
       x="46.858566"
       style="font-variant:normal;font-weight:normal;font-size:10px;font-family:TeXGyreHeros;-inkscape-font-specification:TeXGyreHeros-Regular;writing-mode:lr-tb;fill:#000000;fill-opacity:1;fill-rule:nonzero;stroke:none"
       id="text3600">
      <tspan
         x="46.858566 54.078568 60.748569 67.418564 70.19857 72.978569 79.648567 85.208565 90.768562 96.328568 101.88857 107.44857 110.22857 113.00857 120.78857 126.34856 131.90857 137.46857 143.02856"
         y="646.7724"
         id="tspan3602">USA, Kanada, Quebec</tspan>
    </text>
    <text
       y="646.7724"
       x="207.70857"
       style="font-variant:normal;font-weight:bold;font-size:10px;font-family:TeXGyreHeros;-inkscape-font-specification:TeXGyreHeros-Bold;writing-mode:lr-tb;fill:#000000;fill-opacity:1;fill-rule:nonzero;stroke:none"
       id="text3604">
      <tspan
         x="207.70857 213.26857 557.99609 563.55609"
         y="646.7724"
         id="tspan3606">6970</tspan>
      <tspan
         x="46.858578 54.078571 60.188572 66.298569 71.858566 75.748566 78.528564 84.088562 90.198563 92.978577 96.308563 102.41856 106.30856 109.08856 114.64857 120.20857 126.31857 130.20857 135.76857 141.87857 144.65857 147.98857 151.87857 157.43857 163.54857 166.32857 171.88857 175.77856 181.88857 187.44856 190.77856 196.33858 202.44856 205.22858 210.78857 216.34857 220.23857 225.79857 231.35857 237.46857 240.24857 243.57857 246.90857 252.46857"
         y="684.2724"
         id="tspan3608">Underlag för avdrag från arbetsgivaravgifter</tspan>
    </text>
    <text
       y="721.7724"
       x="46.858566"
       style="font-variant:normal;font-weight:normal;font-size:10px;font-family:TeXGyreHeros;-inkscape-font-specification:TeXGyreHeros-Regular;writing-mode:lr-tb;fill:#000000;fill-opacity:1;fill-rule:nonzero;stroke:none"
       id="text3610">
      <tspan
         x="46.858566 54.078568 59.638569 65.19857 67.418564 72.978569 78.538567 84.098564 86.318565 89.098564 91.878563 96.878563 99.658569 105.21857"
         y="721.7724"
         id="tspan3612">Regionalt stöd</tspan>
    </text>
    <text
       y="721.7724"
       x="207.69856"
       style="font-variant:normal;font-weight:bold;font-size:10px;font-family:TeXGyreHeros;-inkscape-font-specification:TeXGyreHeros-Bold;writing-mode:lr-tb;fill:#000000;fill-opacity:1;fill-rule:nonzero;stroke:none"
       id="text3614">
      <tspan
         x="207.69856 213.25858 365.30856"
         y="721.7724"
         id="tspan3616">75*</tspan>
    </text>
    <text
       y="721.7724"
       x="397.15857"
       style="font-variant:normal;font-weight:normal;font-size:10px;font-family:TeXGyreHeros;-inkscape-font-specification:TeXGyreHeros-Regular;writing-mode:lr-tb;fill:#000000;fill-opacity:1;fill-rule:nonzero;stroke:none"
       id="text3618">
      <tspan
         x="397.15857 402.71857 408.27856"
         y="721.7724"
         id="tspan3620">10%</tspan>
    </text>
    <text
       y="721.7724"
       x="557.99609"
       style="font-variant:normal;font-weight:bold;font-size:10px;font-family:TeXGyreHeros;-inkscape-font-specification:TeXGyreHeros-Bold;writing-mode:lr-tb;fill:#000000;fill-opacity:1;fill-rule:nonzero;stroke:none"
       id="text3622">
      <tspan
         x="557.99609 563.55609"
         y="721.7724"
         id="tspan3624">76</tspan>
    </text>
    <text
       y="759.2724"
       x="46.858566"
       style="font-variant:normal;font-weight:normal;font-size:10px;font-family:TeXGyreHeros;-inkscape-font-specification:TeXGyreHeros-Regular;writing-mode:lr-tb;fill:#000000;fill-opacity:1;fill-rule:nonzero;stroke:none"
       id="text3626">
      <tspan
         x="46.858566 53.528568 59.088566 67.418564 75.748566 81.308563 84.08857 89.648567 95.208565 100.76856 106.32857 109.65857 111.87856 117.43857"
         y="759.2724"
         id="tspan3628">Summa underlag</tspan>
    </text>
    <text
       y="759.2724"
       x="207.69856"
       style="font-variant:normal;font-weight:bold;font-size:10px;font-family:TeXGyreHeros;-inkscape-font-specification:TeXGyreHeros-Bold;writing-mode:lr-tb;fill:#000000;fill-opacity:1;fill-rule:nonzero;stroke:none"
       id="text3630">
      <tspan
         x="207.69856 213.25858"
         y="759.2724"
         id="tspan3632">77</tspan>
    </text>
    <text
       y="759.2724"
       x="397.15857"
       style="font-variant:normal;font-weight:normal;font-size:10px;font-family:TeXGyreHeros;-inkscape-font-specification:TeXGyreHeros-Regular;writing-mode:lr-tb;fill:#000000;fill-opacity:1;fill-rule:nonzero;stroke:none"
       id="text3634">
      <tspan
         x="397.15857 403.82858 409.38858 417.71857 426.04858 431.60858 434.38858 439.94858 443.27856 448.83856 454.39856 457.17856 462.17856 467.73856 469.95856 474.95856 480.51859 483.84857 489.40857 494.40857 499.96857 502.18857 504.96857"
         y="759.2724"
         id="tspan3636">Summa arbetsgivaravgift</tspan>
    </text>
    <text
       y="759.2724"
       x="558.00854"
       style="font-variant:normal;font-weight:bold;font-size:10px;font-family:TeXGyreHeros;-inkscape-font-specification:TeXGyreHeros-Bold;writing-mode:lr-tb;fill:#000000;fill-opacity:1;fill-rule:nonzero;stroke:none"
       id="text3638">
      <tspan
         x="558.00854 563.56854"
         y="759.2724"
         id="tspan3640">78</tspan>
    </text>
    <text
       y="796.7724"
       x="46.858566"
       style="font-variant:normal;font-weight:normal;font-size:10px;font-family:TeXGyreHeros;-inkscape-font-specification:TeXGyreHeros-Regular;writing-mode:lr-tb;fill:#000000;fill-opacity:1;fill-rule:nonzero;stroke:none"
       id="text3642">
      <tspan
         x="46.858566 52.418568 57.978565 63.538567 66.318565 71.878571 76.878571 82.438568 85.218567 87.998566 93.558571 96.888565 105.21857 110.77857 116.33857 121.89857"
         y="796.7724"
         id="tspan3644">Lön och förmåner</tspan>
    </text>
    <text
       y="796.7724"
       x="207.69856"
       style="font-variant:normal;font-weight:bold;font-size:10px;font-family:TeXGyreHeros;-inkscape-font-specification:TeXGyreHeros-Bold;writing-mode:lr-tb;fill:#000000;fill-opacity:1;fill-rule:nonzero;stroke:none"
       id="text3646">
      <tspan
         x="207.69856 213.25858"
         y="796.7724"
         id="tspan3648">81</tspan>
    </text>
    <text
       y="796.7724"
       x="397.15857"
       style="font-variant:normal;font-weight:normal;font-size:10px;font-family:TeXGyreHeros;-inkscape-font-specification:TeXGyreHeros-Regular;writing-mode:lr-tb;fill:#000000;fill-opacity:1;fill-rule:nonzero;stroke:none"
       id="text3650">
      <tspan
         x="397.15857 403.26859 406.59857 412.15857 417.71857 420.49857 422.71857 428.27856 433.83856 436.61856 442.17856 447.17856 452.73856 455.51855 458.29855 463.85858 467.18857 475.51855 481.07858 486.63858 492.19858"
         y="796.7724"
         id="tspan3652">Från lön och förmåner</tspan>
    </text>
    <text
       y="796.7724"
       x="557.9986"
       style="font-variant:normal;font-weight:bold;font-size:10px;font-family:TeXGyreHeros;-inkscape-font-specification:TeXGyreHeros-Bold;writing-mode:lr-tb;fill:#000000;fill-opacity:1;fill-rule:nonzero;stroke:none"
       id="text3654">
      <tspan
         x="557.9986 563.55859"
         y="796.7724"
         id="tspan3656">82</tspan>
    </text>
    <text
       y="834.2724"
       x="46.858566"
       style="font-variant:normal;font-weight:normal;font-size:10px;font-family:TeXGyreHeros;-inkscape-font-specification:TeXGyreHeros-Regular;writing-mode:lr-tb;fill:#000000;fill-opacity:1;fill-rule:nonzero;stroke:none"
       id="text3658">
      <tspan
         x="46.858566 53.528568 59.088566 64.648567 69.648567 71.868568 77.428566 82.988564 85.76857 94.098564 96.878563 105.20856"
         y="834.2724"
         id="tspan3660">Pension m.m.</tspan>
    </text>
    <text
       y="834.2724"
       x="207.69856"
       style="font-variant:normal;font-weight:bold;font-size:10px;font-family:TeXGyreHeros;-inkscape-font-specification:TeXGyreHeros-Bold;writing-mode:lr-tb;fill:#000000;fill-opacity:1;fill-rule:nonzero;stroke:none"
       id="text3662">
      <tspan
         x="207.69856 213.25858"
         y="834.2724"
         id="tspan3664">83</tspan>
    </text>
    <text
       y="834.2724"
       x="397.15857"
       style="font-variant:normal;font-weight:normal;font-size:10px;font-family:TeXGyreHeros;-inkscape-font-specification:TeXGyreHeros-Regular;writing-mode:lr-tb;fill:#000000;fill-opacity:1;fill-rule:nonzero;stroke:none"
       id="text3666">
      <tspan
         x="397.15857 403.26859 406.59857 412.15857 417.71857 420.49857 426.05856 431.61856 437.17856 442.17856 444.39856 449.95856 455.51855 458.29855 466.62857 469.40857 477.73856"
         y="834.2724"
         id="tspan3668">Från pension m.m.</tspan>
    </text>
    <text
       y="834.2724"
       x="557.9986"
       style="font-variant:normal;font-weight:bold;font-size:10px;font-family:TeXGyreHeros;-inkscape-font-specification:TeXGyreHeros-Bold;writing-mode:lr-tb;fill:#000000;fill-opacity:1;fill-rule:nonzero;stroke:none"
       id="text3670">
      <tspan
         x="557.9986 563.55859"
         y="834.2724"
         id="tspan3672">84</tspan>
    </text>
    <text
       y="871.7724"
       x="46.858566"
       style="font-variant:normal;font-weight:normal;font-size:10px;font-family:TeXGyreHeros;-inkscape-font-specification:TeXGyreHeros-Regular;writing-mode:lr-tb;fill:#000000;fill-opacity:1;fill-rule:nonzero;stroke:none"
       id="text3674">
      <tspan
         x="46.858566 54.078568 59.638569 65.19857 67.978569 73.538567 76.318565 81.878571 86.878563 92.438568 95.218567 100.77857 103.55857 109.11857 114.67857 116.89857 122.45856 124.67857 130.23857"
         y="871.7724"
         id="tspan3676">Ränta och utdelning</tspan>
    </text>
    <text
       y="871.7724"
       x="207.69856"
       style="font-variant:normal;font-weight:bold;font-size:10px;font-family:TeXGyreHeros;-inkscape-font-specification:TeXGyreHeros-Bold;writing-mode:lr-tb;fill:#000000;fill-opacity:1;fill-rule:nonzero;stroke:none"
       id="text3678">
      <tspan
         x="207.69856 213.25858"
         y="871.7724"
         id="tspan3680">85</tspan>
    </text>
    <text
       y="871.7724"
       x="397.15857"
       style="font-variant:normal;font-weight:normal;font-size:10px;font-family:TeXGyreHeros;-inkscape-font-specification:TeXGyreHeros-Regular;writing-mode:lr-tb;fill:#000000;fill-opacity:1;fill-rule:nonzero;stroke:none"
       id="text3682">
      <tspan
         x="397.15857 403.26859 406.59857 412.15857 417.71857 420.49857 423.82858 429.38858 434.94858 437.72858 443.28857 446.06857 451.62857 456.62857 462.18857 464.96857 470.52856 473.30856 478.86856 484.42856 486.64856 492.20856 494.42856 499.98856"
         y="871.7724"
         id="tspan3684">Från ränta och utdelning</tspan>
    </text>
    <text
       y="871.7724"
       x="558.00854"
       style="font-variant:normal;font-weight:bold;font-size:10px;font-family:TeXGyreHeros;-inkscape-font-specification:TeXGyreHeros-Bold;writing-mode:lr-tb;fill:#000000;fill-opacity:1;fill-rule:nonzero;stroke:none"
       id="text3686">
      <tspan
         x="558.00854 563.56854"
         y="871.7724"
         id="tspan3688">86</tspan>
      <tspan
         x="46.858555 53.528553 59.638554 68.528549 77.418587 82.978584 85.758583 91.318581 96.878578 102.43858 105.76858 109.09858 114.65858 120.76858 126.87858 132.98859 138.54858 142.43858 145.21858 150.77858 207.70859 213.26859 397.15857 403.82858 409.93857 418.82858 427.71857 433.27856 436.05856 441.61856 447.17856 453.28857 457.17856 462.73856 468.84857 474.40857 480.51855 483.29855 488.85858 494.41858 499.97858 503.30856 558.00854 563.56854"
         y="909.2724"
         id="tspan3690">Summa skatteunderlag87Summa avdragen skatt88</tspan>
      <tspan
         x="397.15857 403.82858 409.93857 418.82858 427.71857 433.27856 436.05856 441.61856 447.17856 453.28857 456.06857 459.39856 462.72858 465.50858 471.61856 477.17856 483.28857 486.06857 491.62857 497.18857 502.74857 506.07858"
         y="946.7724"
         id="tspan3692">Summa avgift och skatt</tspan>
    </text>
    <text
       y="374.49527"
       x="207.26189"
       style="font-variant:normal;font-weight:bold;font-size:10px;font-family:TeXGyreHeros;-inkscape-font-specification:TeXGyreHeros-Bold;writing-mode:lr-tb;fill:#000000;fill-opacity:1;fill-rule:nonzero;stroke:none"
       id="text3522-0">
      <tspan
         x="396.72443 400.05438 407.27441 413.3844 416.71442 422.27441 425.05438 430.61444 436.17444 438.95441 444.79443 447.5744 453.1344 458.6944 461.47443 467.31439 470.09442 475.65442 481.21442 483.99438 489.83441 492.61438 498.17438 503.73438 506.5144 512.35443 515.13446 520.69446 526.25446 529.03442 534.87445 537.65442 543.21442 548.77441"
         id="tspan3524-2">(Ruta 53 = 55 + 57 + 59 + 65 + 69)</tspan>
      <tspan
         y="353.91135"
         x="396.72443"
         id="tspan3526-7" />
    </text>
  </g>
</svg>
